C:\Users\r0593348\3dpredictsim\Results\Batchsim_tmt_linear\Pog_s1_tmt_aCst_d02_k2000_ig24_pas_GRF.mot
nRows=15
nColumns=19

name C:\Users\r0593348\3dpredictsim\Results\Batchsim_tmt_linear\Pog_s1_tmt_aCst_d02_k2000_ig24_pas_GRF.mot
datacolumns 19
datarows 15
range 0.0000000000 0.1546068244
endheader
time 	ground_force_vx	ground_force_vy	ground_force_vz	ground_force_px	ground_force_py	ground_force_pz	1_ground_force_vx	1_ground_force_vy	1_ground_force_vz	1_ground_force_px	1_ground_force_py	1_ground_force_pz	ground_torque_x	ground_torque_y	ground_torque_z	1_ground_torque_x	1_ground_torque_y	1_ground_torque_z
        0.0000000000	      -93.1266210174	       84.5214300069	       36.5198569553	        0.1748571034	        0.0000000000	        0.0385016436	       95.4660618560	      512.7437104037	       -3.7604467446	       -0.3130730512	        0.0000000000	       -0.0374913179	        0.0000000000	        0.0000000000	        0.0000000000	        0.0000000000	        0.0000000000	        0.0000000000	
        0.0110433446	      -83.1855287537	      180.1166170897	       74.0144414708	        0.1811593348	        0.0000000000	        0.0369081125	       79.1415109583	      433.5329989820	       -8.1727235810	       -0.3097397079	        0.0000000000	       -0.0366327344	        0.0000000000	        0.0000000000	        0.0000000000	        0.0000000000	        0.0000000000	        0.0000000000	
        0.0220866892	      -36.8465409068	      322.7904200113	       15.6385953755	        0.1847026103	        0.0000000000	        0.0349479558	       63.2662454815	      349.8493501547	       -6.7695958592	       -0.3048104959	        0.0000000000	       -0.0349570611	        0.0000000000	        0.0000000000	        0.0000000000	        0.0000000000	        0.0000000000	        0.0000000000	
        0.0331300338	      -38.6512657988	      455.4363760877	       -0.4218307009	        0.1879839988	        0.0000000000	        0.0352604676	       42.3091646325	      261.2987897270	       -4.3256217529	       -0.2969812939	        0.0000000000	       -0.0318464140	        0.0000000000	        0.0000000000	        0.0000000000	        0.0000000000	        0.0000000000	        0.0000000000	
        0.0441733784	      -71.8344378339	      610.8166340963	       -5.6688046135	        0.1955640310	        0.0000000000	        0.0376249078	       17.9706515376	      171.2407062656	       -8.4796438917	       -0.2828614392	        0.0000000000	       -0.0255877251	        0.0000000000	        0.0000000000	        0.0000000000	        0.0000000000	        0.0000000000	        0.0000000000	
        0.0552167230	      -96.2977348491	      734.6631302475	       -9.7257384537	        0.2019103778	        0.0000000000	        0.0395331594	        3.3976580569	      131.8212448588	      -12.7743857756	       -0.2760301332	        0.0000000000	       -0.0221442557	        0.0000000000	        0.0000000000	        0.0000000000	        0.0000000000	        0.0000000000	        0.0000000000	
        0.0662600676	     -104.3351841609	      794.0614426781	      -11.7535547000	        0.2063758239	        0.0000000000	        0.0407508779	        1.1347689426	      101.1442592859	      -13.4745466036	       -0.2755051433	        0.0000000000	       -0.0222379845	        0.0000000000	        0.0000000000	        0.0000000000	        0.0000000000	        0.0000000000	        0.0000000000	
        0.0773034122	     -101.7153852820	      804.7385116894	      -12.3461270778	        0.2097045244	        0.0000000000	        0.0415219678	       -3.0184678738	       65.1634013937	      -12.0612751052	       -0.2750482419	        0.0000000000	       -0.0222608989	        0.0000000000	        0.0000000000	        0.0000000000	        0.0000000000	        0.0000000000	        0.0000000000	
        0.0883467568	      -94.8664658460	      794.2611757844	      -12.5096840730	        0.2126230047	        0.0000000000	        0.0419916408	       -8.4406328299	       26.4323633492	       -5.8142855475	       -0.2754052327	        0.0000000000	       -0.0218973043	        0.0000000000	        0.0000000000	        0.0000000000	        0.0000000000	        0.0000000000	        0.0000000000	
        0.0993901014	      -85.7315890553	      780.0221974703	      -13.3125750955	        0.2157603506	        0.0000000000	        0.0422354747	        0.0939409484	       -0.0920993115	        0.0023875244	        0.0000000000	        0.0000000000	        0.0000000000	        0.0000000000	        0.0000000000	        0.0000000000	        0.0000000000	        0.0000000000	        0.0000000000	
        0.1104334460	      -74.4532621595	      757.5911862693	      -14.2665266241	        0.2190393313	        0.0000000000	        0.0423645689	        0.0002168637	       -0.0001741164	       -0.0000111917	        0.0000000000	        0.0000000000	        0.0000000000	        0.0000000000	        0.0000000000	        0.0000000000	        0.0000000000	        0.0000000000	        0.0000000000	
        0.1214767906	      -64.5799204871	      732.1078205523	      -14.7488112675	        0.2229851515	        0.0000000000	        0.0424054234	        0.0000905728	       -0.0000630377	       -0.0000063686	        0.0000000000	        0.0000000000	        0.0000000000	        0.0000000000	        0.0000000000	        0.0000000000	        0.0000000000	        0.0000000000	        0.0000000000	
        0.1325201352	      -56.0921970959	      707.3231583684	      -15.2390672301	        0.2275375146	        0.0000000000	        0.0423389278	        0.0009233881	       -0.0005757814	       -0.0000728729	        0.0000000000	        0.0000000000	        0.0000000000	        0.0000000000	        0.0000000000	        0.0000000000	        0.0000000000	        0.0000000000	        0.0000000000	
        0.1435634798	      -47.4711475834	      681.2694767607	      -15.8080215202	        0.2321315005	        0.0000000000	        0.0422890155	        0.0028631243	       -0.0016353965	       -0.0002403927	        0.0000000000	        0.0000000000	        0.0000000000	        0.0000000000	        0.0000000000	        0.0000000000	        0.0000000000	        0.0000000000	        0.0000000000	
        0.1546068244	      -39.4127234168	      655.9355376438	      -16.3268976678	        0.2366695413	        0.0000000000	        0.0422963745	       -0.0321523063	        0.0170780982	        0.0028127091	        0.0000000000	        0.0000000000	        0.0000000000	        0.0000000000	        0.0000000000	        0.0000000000	        0.0000000000	        0.0000000000	        0.0000000000	
